<svg width="32" height="32" viewBox="0 0 32 32" xmlns="http://www.w3.org/2000/svg">
  <!-- Background circle with Reddit orange -->
  <circle cx="16" cy="16" r="15" fill="#FF4500"/>

  <!-- AI/Neural network symbol -->
  <g fill="#ffffff">
    <!-- Central brain/CPU symbol -->
    <rect x="12" y="12" width="8" height="8" rx="1" fill="#ffffff"/>

    <!-- Neural connection dots -->
    <circle cx="8" cy="8" r="1.5"/>
    <circle cx="24" cy="8" r="1.5"/>
    <circle cx="8" cy="24" r="1.5"/>
    <circle cx="24" cy="24" r="1.5"/>

    <!-- Connection lines -->
    <line x1="8" y1="8" x2="12" y2="12" stroke="#ffffff" stroke-width="1.5"/>
    <line x1="24" y1="8" x2="20" y2="12" stroke="#ffffff" stroke-width="1.5"/>
    <line x1="8" y1="24" x2="12" y2="20" stroke="#ffffff" stroke-width="1.5"/>
    <line x1="24" y1="24" x2="20" y2="20" stroke="#ffffff" stroke-width="1.5"/>

    <!-- Additional smaller nodes -->
    <circle cx="16" cy="6" r="1"/>
    <circle cx="16" cy="26" r="1"/>
    <circle cx="6" cy="16" r="1"/>
    <circle cx="26" cy="16" r="1"/>

    <!-- Vertical and horizontal connections -->
    <line x1="16" y1="6" x2="16" y2="12" stroke="#ffffff" stroke-width="1"/>
    <line x1="16" y1="20" x2="16" y2="26" stroke="#ffffff" stroke-width="1"/>
    <line x1="6" y1="16" x2="12" y2="16" stroke="#ffffff" stroke-width="1"/>
    <line x1="20" y1="16" x2="26" y2="16" stroke="#ffffff" stroke-width="1"/>
  </g>
</svg>
